<svg width="35" height="27" viewBox="0 0 35 27" fill="none" xmlns="http://www.w3.org/2000/svg">
<rect x="0.905029" y="0.589966" width="26" height="26" rx="13" fill="url(#paint0_linear_2001_21)"/>
<g clip-path="url(#clip0_2001_21)">
<g clip-path="url(#clip1_2001_21)">
<g clip-path="url(#clip2_2001_21)">
<g clip-path="url(#clip3_2001_21)">
<path fill-rule="evenodd" clip-rule="evenodd" d="M15.0671 11.1251C15.3221 11.1251 15.5287 11.3318 15.5287 11.5866V12.5097C15.5287 12.7646 15.3221 12.9712 15.0671 12.9712C14.8123 12.9712 14.6057 12.7646 14.6057 12.5097V11.5866C14.6057 11.3318 14.8123 11.1251 15.0671 11.1251Z" fill="white"/>
<path fill-rule="evenodd" clip-rule="evenodd" d="M12.2981 11.1251C12.5529 11.1251 12.7596 11.3318 12.7596 11.5866V12.5097C12.7596 12.7646 12.5529 12.9712 12.2981 12.9712C12.0432 12.9712 11.8365 12.7646 11.8365 12.5097V11.5866C11.8365 11.3318 12.0432 11.1251 12.2981 11.1251Z" fill="white"/>
<path fill-rule="evenodd" clip-rule="evenodd" d="M11.1504 14.414C11.3731 14.29 11.6541 14.3699 11.7782 14.5926C11.9743 14.9447 12.2544 15.2346 12.5886 15.4351C12.9227 15.6355 13.2998 15.7402 13.6826 15.7402C14.0653 15.7402 14.4425 15.6355 14.7765 15.4351C15.1108 15.2346 15.3909 14.9447 15.587 14.5926C15.711 14.3699 15.9921 14.29 16.2148 14.414C16.4375 14.538 16.5174 14.8191 16.3934 15.0418C16.1203 15.5319 15.7271 15.9411 15.2514 16.2266C14.7755 16.5121 14.2345 16.6633 13.6826 16.6633C13.1307 16.6633 12.5896 16.5121 12.1137 16.2266C11.638 15.9411 11.2449 15.5319 10.9718 15.0418C10.8478 14.8191 10.9277 14.538 11.1504 14.414Z" fill="white"/>
<path fill-rule="evenodd" clip-rule="evenodd" d="M17.7109 9.42401L17.7547 9.46781C18.5559 10.269 19.1869 10.8999 19.6247 11.4575C20.0731 12.0285 20.358 12.5697 20.4119 13.1988C20.4277 13.3826 20.4277 13.5673 20.4119 13.7511C20.358 14.3804 20.0731 14.9215 19.6247 15.4925C19.1869 16.0501 18.5559 16.681 17.7547 17.4821L17.7109 17.5259C16.9098 18.3271 16.2789 18.9581 15.7213 19.3959C15.1503 19.8443 14.6091 20.1291 13.9799 20.1831C13.7962 20.1989 13.6114 20.1989 13.4276 20.1831C12.7984 20.1291 12.2572 19.8443 11.6863 19.3959C11.1287 18.9581 10.4978 18.3271 9.69658 17.5259L9.65278 17.4821C8.8516 16.681 8.22064 16.0501 7.78283 15.4925C7.33447 14.9215 7.04957 14.3804 6.99559 13.7511C6.97982 13.5673 6.97982 13.3826 6.99559 13.1988C7.04957 12.5697 7.33447 12.0285 7.78283 11.4575C8.22064 10.8999 8.8516 10.269 9.65278 9.46781L9.69658 9.42401C10.4978 8.62283 11.1287 7.99188 11.6863 7.55406C12.2572 7.1057 12.7984 6.82081 13.4276 6.76683C13.6114 6.75106 13.7962 6.75106 13.9799 6.76683C14.6091 6.82081 15.1503 7.1057 15.7213 7.55406C16.2789 7.99188 16.9098 8.62283 17.7109 9.42401ZM10.3274 10.0986C9.49947 10.9265 8.90833 11.5187 8.50879 12.0275C8.11582 12.528 7.94765 12.9001 7.91525 13.2777C7.90399 13.409 7.90399 13.541 7.91525 13.6722C7.94765 14.0498 8.11581 14.422 8.50879 14.9224C8.90833 15.4313 9.49947 16.0235 10.3274 16.8514C11.1553 17.6793 11.7475 18.2704 12.2563 18.67C12.7568 19.0629 13.1289 19.2311 13.5065 19.2635C13.6378 19.2748 13.7698 19.2748 13.901 19.2635C14.2786 19.2311 14.6508 19.0629 15.1512 18.67C15.66 18.2704 16.2523 17.6793 17.0802 16.8514C17.9081 16.0235 18.4992 15.4313 18.8988 14.9224C19.2917 14.422 19.4599 14.0498 19.4923 13.6722C19.5036 13.541 19.5036 13.409 19.4923 13.2777C19.4599 12.9001 19.2917 12.528 18.8988 12.0275C18.4992 11.5187 17.9081 10.9265 17.0802 10.0986C16.2523 9.27071 15.66 8.67957 15.1512 8.28003C14.6508 7.88705 14.2786 7.71888 13.901 7.68649C13.7698 7.67523 13.6378 7.67523 13.5065 7.68649C13.1289 7.71888 12.7568 7.88705 12.2563 8.28003C11.7475 8.67957 11.1553 9.27071 10.3274 10.0986Z" fill="white"/>
</g>
</g>
</g>
</g>
<defs>
<linearGradient id="paint0_linear_2001_21" x1="0.552325" y1="13.217" x2="27.2577" y2="13.9629" gradientUnits="userSpaceOnUse">
<stop stop-color="#F5620C"/>
<stop offset="0.1434" stop-color="#FC4777"/>
<stop offset="0.282" stop-color="#E848C0"/>
<stop offset="0.5243" stop-color="#9B67F0"/>
<stop offset="0.6827" stop-color="#458FFF"/>
<stop offset="0.8646" stop-color="#0AB2FA"/>
<stop offset="1" stop-color="#0DBDB4"/>
</linearGradient>
<clipPath id="clip0_2001_21">
<rect width="14" height="14" fill="white" transform="translate(6.90503 6.58997)"/>
</clipPath>
<clipPath id="clip1_2001_21">
<rect width="14" height="14" fill="white" transform="translate(6.90503 6.58997)"/>
</clipPath>
<clipPath id="clip2_2001_21">
<rect width="14" height="14" fill="white" transform="translate(6.90503 6.58997)"/>
</clipPath>
<clipPath id="clip3_2001_21">
<rect width="14" height="14" fill="white" transform="translate(6.90503 6.58997)"/>
</clipPath>
</defs>
</svg>
