<svg width="25" height="25" viewBox="0 0 25 25" fill="none" xmlns="http://www.w3.org/2000/svg">
<rect x="0.905029" y="0.589966" width="24" height="24" rx="12" fill="#F8FAFC"/>
<g clip-path="url(#clip0_2001_34)">
<path d="M12.6359 0.837158C18.9969 0.837158 24.1549 6.0952 24.1549 12.5818C24.1549 19.0669 18.9969 24.3265 12.6359 24.3265C6.27285 24.3265 1.11438 19.0669 1.11438 12.5818C1.11438 6.0952 6.27285 0.837158 12.6359 0.837158Z" fill="#181D26" fill-opacity="0.0509804"/>
<path d="M12.6362 17.2516V7.91067V17.2516ZM17.2174 12.5821H8.05224H17.2174ZM12.8887 7.65131C12.8387 7.59907 12.7746 7.5633 12.7044 7.54861C12.6343 7.53392 12.5615 7.54099 12.4954 7.56891C12.4293 7.59683 12.3728 7.64431 12.3334 7.70523C12.294 7.76615 12.2734 7.83771 12.2743 7.91067V17.2516C12.2743 17.3495 12.3127 17.4435 12.3799 17.5129C12.448 17.5805 12.5393 17.6183 12.6343 17.6183C12.7293 17.6183 12.8206 17.5805 12.8887 17.5129C12.9563 17.4434 12.9942 17.3495 12.9943 17.2516V7.91067C12.9943 7.8128 12.9569 7.71884 12.8887 7.65131ZM17.4708 12.3198C17.4374 12.2862 17.3978 12.2597 17.3543 12.2417C17.3108 12.2237 17.2643 12.2147 17.2174 12.2151H8.05224C7.95746 12.2152 7.8665 12.2532 7.7988 12.3208C7.73196 12.3903 7.69452 12.4838 7.69452 12.5811C7.69452 12.6785 7.73196 12.772 7.7988 12.8415C7.866 12.91 7.95816 12.9491 8.05224 12.9491H17.2174C17.2646 12.9493 17.3115 12.9399 17.3551 12.9215C17.3988 12.903 17.4385 12.876 17.4719 12.8419C17.5052 12.8078 17.5317 12.7672 17.5496 12.7227C17.5675 12.6781 17.5767 12.6303 17.5764 12.5821C17.5763 12.4842 17.5384 12.3904 17.4708 12.3208V12.3198Z" fill="#181D26"/>
<path d="M12.6362 17.2516V7.91067M17.2174 12.5821H8.05224M12.8887 7.65131C12.8387 7.59907 12.7746 7.5633 12.7044 7.54861C12.6343 7.53392 12.5615 7.54099 12.4954 7.56891C12.4293 7.59683 12.3728 7.64431 12.3334 7.70523C12.294 7.76615 12.2734 7.83771 12.2743 7.91067V17.2516C12.2743 17.3495 12.3127 17.4435 12.3799 17.5129C12.448 17.5805 12.5393 17.6183 12.6343 17.6183C12.7293 17.6183 12.8206 17.5805 12.8887 17.5129C12.9563 17.4434 12.9942 17.3495 12.9943 17.2516V7.91067C12.9943 7.8128 12.9569 7.71884 12.8887 7.65131ZM17.4708 12.3198C17.4374 12.2862 17.3978 12.2597 17.3543 12.2417C17.3108 12.2237 17.2643 12.2147 17.2174 12.2151H8.05224C7.95746 12.2152 7.8665 12.2532 7.7988 12.3208C7.73196 12.3903 7.69452 12.4838 7.69452 12.5811C7.69452 12.6785 7.73196 12.772 7.7988 12.8415C7.866 12.91 7.95816 12.9491 8.05224 12.9491H17.2174C17.2646 12.9493 17.3115 12.9399 17.3551 12.9215C17.3988 12.903 17.4385 12.876 17.4719 12.8419C17.5052 12.8078 17.5317 12.7672 17.5496 12.7227C17.5675 12.6781 17.5767 12.6303 17.5764 12.5821C17.5763 12.4842 17.5384 12.3904 17.4708 12.3208V12.3198Z" stroke="#181D26" stroke-width="0.484659"/>
</g>
<defs>
<clipPath id="clip0_2001_34">
<rect width="24" height="24" fill="white" transform="translate(0.905029 0.589966)"/>
</clipPath>
</defs>
</svg>
