<svg width="39" height="33" viewBox="0 0 39 33" fill="none" xmlns="http://www.w3.org/2000/svg">
<path d="M17.3155 2.5178L4.90291 7.6553C4.21284 7.94123 4.2198 8.92194 4.91458 9.19733L17.3789 14.1415C18.474 14.576 19.6936 14.576 20.7888 14.1415L33.2533 9.19733C33.9477 8.92194 33.955 7.94123 33.2646 7.65549L20.8524 2.5178C19.72 2.04908 18.4479 2.04908 17.3155 2.5178Z" fill="#FCB400"/>
<path d="M20.1896 16.8412V29.1927C20.1896 29.78 20.7818 30.1824 21.3278 29.9659L35.2168 24.5734C35.3717 24.5119 35.5046 24.4054 35.5982 24.2675C35.6919 24.1296 35.7419 23.9668 35.7419 23.8001V11.4488C35.7419 10.8614 35.1496 10.4591 34.6037 10.6756L20.7147 16.0681C20.5598 16.1296 20.4269 16.2362 20.3333 16.3741C20.2397 16.5119 20.1897 16.6746 20.1896 16.8412Z" fill="#18BFFF"/>
<path d="M16.9465 17.4786L12.8245 19.4694L12.406 19.6717L3.70478 23.8421C3.1534 24.1082 2.44922 23.7062 2.44922 23.0933V11.5006C2.44922 11.2789 2.56288 11.0874 2.71531 10.9434C2.77784 10.8811 2.84879 10.8279 2.92608 10.7853C3.13383 10.6605 3.43041 10.6272 3.68257 10.727L16.8772 15.9565C17.5479 16.2227 17.6006 17.1625 16.9465 17.4786Z" fill="#F82B60"/>
<path d="M16.9465 17.4786L12.8245 19.4694L2.71533 10.9432C2.77788 10.881 2.84882 10.8279 2.9261 10.7853C3.13385 10.6605 3.43043 10.6272 3.68259 10.727L16.8773 15.9565C17.5479 16.2227 17.6006 17.1625 16.9465 17.4786Z" fill="black" fill-opacity="0.25"/>
</svg>
